<svg width="12" height="12" viewBox="0 0 12 12" fill="none" xmlns="http://www.w3.org/2000/svg">
<mask id="path-1-inside-1_3_421" fill="white">
<path fill-rule="evenodd" clip-rule="evenodd" d="M11.204 0.796049C11.6436 1.23569 11.6436 1.9485 11.204 2.38815L2.38815 11.204C1.9485 11.6436 1.2357 11.6436 0.796051 11.204C0.356405 10.7643 0.356406 10.0515 0.796051 9.61185L9.61185 0.796049C10.0515 0.356403 10.7643 0.356403 11.204 0.796049Z"/>
<path fill-rule="evenodd" clip-rule="evenodd" d="M11.2039 11.204C10.7643 11.6436 10.0515 11.6436 9.61185 11.2039L0.796049 2.38815C0.356403 1.9485 0.356403 1.23569 0.796049 0.796049C1.23569 0.356403 1.9485 0.356404 2.38815 0.796049L11.2039 9.61185C11.6436 10.0515 11.6436 10.7643 11.2039 11.204Z"/>
</mask>
<path fill-rule="evenodd" clip-rule="evenodd" d="M11.204 0.796049C11.6436 1.23569 11.6436 1.9485 11.204 2.38815L2.38815 11.204C1.9485 11.6436 1.2357 11.6436 0.796051 11.204C0.356405 10.7643 0.356406 10.0515 0.796051 9.61185L9.61185 0.796049C10.0515 0.356403 10.7643 0.356403 11.204 0.796049Z" fill="white"/>
<path fill-rule="evenodd" clip-rule="evenodd" d="M11.2039 11.204C10.7643 11.6436 10.0515 11.6436 9.61185 11.2039L0.796049 2.38815C0.356403 1.9485 0.356403 1.23569 0.796049 0.796049C1.23569 0.356403 1.9485 0.356404 2.38815 0.796049L11.2039 9.61185C11.6436 10.0515 11.6436 10.7643 11.2039 11.204Z" fill="white"/>
<path d="M11.2039 9.61185L7.89345 12.9223L11.2039 9.61185ZM2.38815 0.796049L-0.922349 4.10654L2.38815 0.796049ZM9.61185 0.796049L6.30136 -2.51445L9.61185 0.796049ZM0.796051 9.61185L4.10655 12.9223L0.796051 9.61185ZM11.204 2.38815L7.89346 -0.922349L11.204 2.38815ZM2.38815 11.204L-0.922347 7.89346L2.38815 11.204ZM5.69864 14.5144L14.5144 5.69864L7.89346 -0.922349L-0.922347 7.89346L5.69864 14.5144ZM6.30136 -2.51445L-2.51444 6.30136L4.10655 12.9223L12.9223 4.10654L6.30136 -2.51445ZM-2.51445 5.69864L6.30135 14.5144L12.9223 7.89346L4.10654 -0.922348L-2.51445 5.69864ZM14.5144 6.30136L5.69864 -2.51445L-0.922349 4.10654L7.89345 12.9223L14.5144 6.30136ZM7.89345 12.9223C6.50476 11.5337 6.50476 9.28215 7.89345 7.89346L14.5144 14.5144C16.7824 12.2465 16.7824 8.56934 14.5144 6.30136L7.89345 12.9223ZM4.10654 4.10654C2.71785 5.49524 0.46634 5.49523 -0.922349 4.10654L5.69864 -2.51445C3.43066 -4.78243 -0.246463 -4.78243 -2.51445 -2.51445L4.10654 4.10654ZM6.30135 14.5144C8.56933 16.7824 12.2465 16.7824 14.5144 14.5144L7.89345 7.89346C9.28215 6.50476 11.5337 6.50477 12.9223 7.89346L6.30135 14.5144ZM4.10654 -0.922348C5.49523 0.466341 5.49524 2.71785 4.10654 4.10654L-2.51445 -2.51445C-4.78243 -0.246463 -4.78243 3.43066 -2.51445 5.69864L4.10654 -0.922348ZM12.9223 4.10654C11.5337 5.49523 9.28215 5.49524 7.89346 4.10654L14.5144 -2.51445C12.2465 -4.78243 8.56934 -4.78243 6.30136 -2.51445L12.9223 4.10654ZM4.10655 7.89346C5.49524 9.28215 5.49524 11.5337 4.10655 12.9223L-2.51444 6.30136C-4.78242 8.56934 -4.78243 12.2465 -2.51444 14.5144L4.10655 7.89346ZM14.5144 5.69864C16.7824 3.43066 16.7824 -0.246465 14.5144 -2.51445L7.89346 4.10654C6.50477 2.71785 6.50477 0.466342 7.89346 -0.922349L14.5144 5.69864ZM-0.922347 7.89346C0.466343 6.50477 2.71786 6.50476 4.10655 7.89346L-2.51444 14.5144C-0.246462 16.7824 3.43066 16.7824 5.69864 14.5144L-0.922347 7.89346Z" fill="white" mask="url(#path-1-inside-1_3_421)"/>
</svg>
