<svg width="24" height="24" viewBox="0 0 24 24" fill="none" xmlns="http://www.w3.org/2000/svg">
<circle cx="12" cy="12" r="11.5" stroke="#4184D2"/>
<path d="M13.264 16.784C14.064 16.784 14.752 16.608 15.328 16.256C15.9147 15.904 16.3627 15.4027 16.672 14.752H18.4C17.9947 15.8187 17.3387 16.6453 16.432 17.232C15.5253 17.808 14.4693 18.096 13.264 18.096C12.0053 18.096 10.896 17.7493 9.936 17.056C8.976 16.3627 8.31467 15.4347 7.952 14.272H6.4V13.248H7.728C7.696 12.9707 7.68 12.6933 7.68 12.416C7.68 12.1493 7.696 11.888 7.728 11.632H6.4V10.624H7.936C8.17067 9.84533 8.544 9.16267 9.056 8.576C9.57867 7.97867 10.1973 7.52 10.912 7.2C11.6373 6.86933 12.4213 6.704 13.264 6.704C14.4693 6.704 15.5253 6.99733 16.432 7.584C17.3387 8.17067 17.9947 9.00267 18.4 10.08H16.672C16.3627 9.41867 15.92 8.912 15.344 8.56C14.768 8.208 14.0747 8.032 13.264 8.032C12.368 8.032 11.584 8.26133 10.912 8.72C10.2507 9.17867 9.776 9.81333 9.488 10.624H13.264V11.632H9.232C9.2 11.888 9.184 12.1493 9.184 12.416C9.184 12.7253 9.20533 13.0027 9.248 13.248H13.264V14.272H9.504C9.81333 15.0613 10.2987 15.68 10.96 16.128C11.632 16.5653 12.4 16.784 13.264 16.784Z" fill="#4184D2"/>
</svg>
