<svg width="24" height="24" viewBox="0 0 24 24" fill="none" xmlns="http://www.w3.org/2000/svg">
<circle cx="12" cy="12" r="11.5" stroke="#4184D2"/>
<path d="M15.72 16.816V18.032H8.584L8.328 17.2C8.776 16.6987 9.10667 16.2187 9.32 15.76C9.544 15.3013 9.656 14.736 9.656 14.064C9.656 13.7867 9.608 13.456 9.512 13.072H7.704V12.048H9.16C9.02133 11.6747 8.91467 11.3227 8.84 10.992C8.76533 10.6507 8.728 10.2773 8.728 9.872C8.728 9.18933 8.872 8.59733 9.16 8.096C9.45867 7.584 9.86933 7.18933 10.392 6.912C10.9253 6.63467 11.5333 6.496 12.216 6.496C13.304 6.496 14.1413 6.81067 14.728 7.44C15.3147 8.06933 15.6293 8.864 15.672 9.824H14.328C14.3067 9.19467 14.1147 8.688 13.752 8.304C13.4 7.92 12.888 7.728 12.216 7.728C11.5973 7.728 11.0907 7.90933 10.696 8.272C10.312 8.63467 10.12 9.18933 10.12 9.936C10.12 10.288 10.1573 10.624 10.232 10.944C10.3067 11.2533 10.4187 11.6213 10.568 12.048H13.672V13.072H10.888C10.984 13.456 11.032 13.7867 11.032 14.064C11.032 15.0773 10.6533 15.9947 9.896 16.816H15.72Z" fill="#4184D2"/>
</svg>
