<svg width="24" height="24" viewBox="0 0 24 24" fill="none" xmlns="http://www.w3.org/2000/svg">
<circle cx="12" cy="12" r="11.5" stroke="#4184D2"/>
<path d="M12.64 18.16C11.808 18.16 11.104 18.048 10.528 17.824C9.952 17.6 9.50933 17.2693 9.2 16.832C8.90133 16.384 8.752 15.8187 8.752 15.136C8.752 14.9333 8.768 14.7413 8.8 14.56C8.832 14.368 8.87467 14.192 8.928 14.032H8.176V13.008H9.52C9.73333 12.7947 10.016 12.6027 10.368 12.432C10.7307 12.2507 11.104 12.0907 11.488 11.952C11.8827 11.8133 12.2293 11.696 12.528 11.6C12.8267 11.4933 13.0187 11.4187 13.104 11.376H8.176V10.352H14.288C14.3733 10.2027 14.432 10.048 14.464 9.888C14.5067 9.728 14.528 9.52533 14.528 9.28C14.528 8.94933 14.4533 8.66667 14.304 8.432C14.1547 8.18667 13.9253 8 13.616 7.872C13.3067 7.744 12.9067 7.68 12.416 7.68C12.064 7.68 11.7227 7.712 11.392 7.776C11.072 7.84 10.768 7.92533 10.48 8.032C10.2027 8.128 9.94133 8.23467 9.696 8.352L9.296 7.088C9.70133 6.896 10.1973 6.736 10.784 6.608C11.3707 6.48 11.9413 6.416 12.496 6.416C13.2213 6.416 13.84 6.51733 14.352 6.72C14.8747 6.912 15.2747 7.20533 15.552 7.6C15.84 7.99467 15.984 8.496 15.984 9.104C15.984 9.328 15.968 9.552 15.936 9.776C15.904 9.98933 15.8453 10.1813 15.76 10.352H16.64V11.376H15.248C15.0773 11.5467 14.8107 11.7227 14.448 11.904C14.0853 12.0747 13.7067 12.2347 13.312 12.384C12.9173 12.5333 12.56 12.6613 12.24 12.768C11.92 12.8747 11.712 12.9547 11.616 13.008H16.64V14.032H10.416C10.3307 14.192 10.272 14.3413 10.24 14.48C10.208 14.6187 10.192 14.8107 10.192 15.056C10.192 15.472 10.288 15.8187 10.48 16.096C10.672 16.3627 10.96 16.5653 11.344 16.704C11.728 16.8427 12.2027 16.912 12.768 16.912C13.376 16.912 13.9627 16.8373 14.528 16.688C15.104 16.528 15.584 16.3627 15.968 16.192V17.488C15.6053 17.6587 15.12 17.8133 14.512 17.952C13.904 18.0907 13.28 18.16 12.64 18.16Z" fill="#4184D2"/>
</svg>
