<svg width="24" height="24" viewBox="0 0 24 24" fill="none" xmlns="http://www.w3.org/2000/svg">
<circle cx="12" cy="12" r="11.5" stroke="#4184D2"/>
<path d="M15.432 14.944C15.432 15.456 15.304 15.9467 15.048 16.416C14.792 16.8747 14.4133 17.2587 13.912 17.568C13.4213 17.8773 12.8293 18.0533 12.136 18.096V19.392H11.272V18.096C10.3013 18.0107 9.512 17.7013 8.904 17.168C8.296 16.624 7.98667 15.936 7.976 15.104H9.528C9.57067 15.552 9.736 15.9413 10.024 16.272C10.3227 16.6027 10.7387 16.8107 11.272 16.896V12.896C10.5573 12.7147 9.98133 12.528 9.544 12.336C9.10667 12.144 8.73333 11.8453 8.424 11.44C8.11467 11.0347 7.96 10.4907 7.96 9.808C7.96 8.944 8.25867 8.22933 8.856 7.664C9.464 7.09867 10.2693 6.784 11.272 6.72V5.392H12.136V6.72C13.0427 6.79467 13.7733 7.088 14.328 7.6C14.8827 8.10133 15.2027 8.75733 15.288 9.568H13.736C13.6827 9.19467 13.5173 8.85867 13.24 8.56C12.9627 8.25067 12.5947 8.048 12.136 7.952V11.856C12.84 12.0373 13.4107 12.224 13.848 12.416C14.296 12.5973 14.6693 12.8907 14.968 13.296C15.2773 13.7013 15.432 14.2507 15.432 14.944ZM9.448 9.728C9.448 10.2507 9.60267 10.6507 9.912 10.928C10.2213 11.2053 10.6747 11.4347 11.272 11.616V7.92C10.7173 7.97333 10.2747 8.15467 9.944 8.464C9.61333 8.76267 9.448 9.184 9.448 9.728ZM12.136 16.912C12.712 16.848 13.16 16.64 13.48 16.288C13.8107 15.936 13.976 15.5147 13.976 15.024C13.976 14.5013 13.816 14.1013 13.496 13.824C13.176 13.536 12.7227 13.3067 12.136 13.136V16.912Z" fill="#4184D2"/>
</svg>
